<svg width="120" height="28" viewBox="0 0 120 28" fill="none" xmlns="http://www.w3.org/2000/svg">
<path d="M32.665 19.9398V8.72412H41.7695V19.9398H39.5458V10.8664H34.8888V19.9398H32.665Z" fill="#E52322"/>
<path d="M50.3344 11.7667V19.9398H48.2775V17.1029C47.8778 17.1766 47.4548 17.2698 46.9464 17.2853L45.2427 19.9398H42.9297L44.9633 16.9981C43.896 16.5479 43.3333 15.7718 43.3333 14.5571C43.3333 12.8922 44.5519 11.7667 46.9541 11.7667H50.3344ZM48.2775 13.4782H47.0162C45.9645 13.4782 45.4406 13.8546 45.4406 14.5881C45.4406 15.3216 45.9529 15.667 46.9735 15.667C47.4237 15.667 47.8584 15.6359 48.2814 15.5622V13.4782H48.2775Z" fill="#E52322"/>
<path d="M64.2477 12.4575C64.8803 13.0707 65.1946 13.9129 65.1946 15.0073V19.9398H63.0757V15.3953C63.0757 14.1496 62.4159 13.4898 61.4379 13.4898C60.3707 13.4898 59.6333 14.2544 59.6333 15.4536V19.9359H57.5144V15.407C57.5144 14.1923 56.8702 13.486 55.8612 13.486C54.8521 13.486 54.0721 14.2505 54.0721 15.4652V19.9321H51.9531V11.759H54.0255V12.9271C54.4912 12.0733 55.4537 11.5184 56.5209 11.5339C57.5416 11.5339 58.4885 12.0306 58.9231 12.9737C59.5247 12.0733 60.6346 11.5339 61.8532 11.5339C62.8312 11.5339 63.6267 11.8327 64.2438 12.4498" fill="#E52322"/>
<path d="M83.4074 12.8029C84.1719 13.6257 84.5484 14.6463 84.5484 15.8455C84.5484 17.0447 84.1564 18.0654 83.3919 18.8881C82.6235 19.7108 81.6649 20.1338 80.5084 20.1338C79.5032 20.1338 78.5757 19.6953 77.9393 18.9191V23.3006H75.8203V11.7706H77.9237V12.8417C78.5951 12.0035 79.4877 11.561 80.5239 11.561C81.6804 11.561 82.6429 11.9802 83.4074 12.8068M81.7852 17.5259C82.2043 17.0757 82.4139 16.5208 82.4139 15.861C82.4139 15.2013 82.2043 14.6463 81.7852 14.1961C81.3661 13.746 80.8227 13.5209 80.1475 13.5209C79.4722 13.5209 78.9444 13.746 78.5253 14.1961C78.1023 14.6463 77.8927 15.2013 77.8927 15.861C77.8927 16.5208 78.1023 17.0757 78.5253 17.5259C78.9444 17.9761 79.4877 18.2012 80.1475 18.2012C80.8072 18.2012 81.3661 17.9761 81.7852 17.5259Z" fill="#E52322"/>
<path d="M86.5471 12.8029C87.3737 11.9647 88.4254 11.5455 89.7022 11.5455C90.979 11.5455 92.0308 11.9647 92.8574 12.8029C93.684 13.6257 94.0915 14.6463 94.0915 15.8455C94.0915 17.0447 93.684 18.0809 92.8574 18.9036C92.0308 19.7264 90.979 20.1494 89.7022 20.1494C88.4254 20.1494 87.3737 19.7303 86.5471 18.9036C85.7205 18.0809 85.313 17.0602 85.313 15.8455C85.313 14.6308 85.7205 13.6257 86.5471 12.8029ZM89.7022 18.1857C90.3465 18.1857 90.8743 17.9606 91.3089 17.5104C91.7436 17.0447 91.9687 16.4897 91.9687 15.8455C91.9687 15.2013 91.7436 14.6463 91.3089 14.1962C90.8743 13.746 90.3465 13.5209 89.7022 13.5209C89.058 13.5209 88.5147 13.746 88.08 14.1962C87.6454 14.6463 87.4358 15.2013 87.4358 15.8455C87.4358 16.4897 87.6454 17.0447 88.08 17.5104C88.5147 17.9606 89.058 18.1857 89.7022 18.1857Z" fill="#E52322"/>
<path d="M100.056 11.7667H102.175V19.9398H100.056V17.1883C99.4351 17.5414 98.7637 17.72 98.2359 17.72C97.2579 17.72 96.5361 17.5414 95.8919 17.1068C95.2438 16.6411 94.8867 15.7718 94.8867 14.5144V11.7706H96.9901V14.363C96.9901 15.3216 97.4869 15.8028 98.4765 15.8028C99.0315 15.8028 99.5049 15.7252 100.056 15.5079V11.7706V11.7667Z" fill="#E52322"/>
<path d="M109.176 19.9399L105.916 16.1677V19.9399H103.797V11.7551H105.916V14.9995L108.889 11.7668H111.563L107.911 15.5506L111.773 19.9399H109.176Z" fill="#E52322"/>
<path d="M117.986 11.7667H120V19.9359H117.986V18.857C117.283 19.7108 116.406 20.1299 115.37 20.1299C114.198 20.1299 113.22 19.7263 112.455 18.8997C111.691 18.0731 111.314 17.0408 111.314 15.8105C111.314 14.5803 111.706 13.5596 112.471 12.7679C113.239 11.9568 114.213 11.5532 115.37 11.5532C116.391 11.5532 117.295 12.015 117.986 12.8339V11.7628V11.7667ZM117.357 14.1806C116.922 13.7149 116.379 13.4898 115.719 13.4898C115.059 13.4898 114.501 13.7149 114.066 14.1806C113.647 14.6463 113.433 15.2012 113.433 15.8455C113.433 16.4897 113.643 17.0602 114.082 17.5259C114.516 17.9916 115.059 18.2167 115.719 18.2167C116.379 18.2167 116.922 17.9916 117.357 17.5259C117.792 17.0602 118.017 16.5052 118.017 15.8455C118.017 15.1857 117.792 14.6463 117.357 14.1806Z" fill="#E52322"/>
<path d="M74.5859 16.5945H68.4425C68.7413 17.7471 69.5408 18.3331 70.8292 18.3331C71.7179 18.3331 72.7037 18.0033 73.4527 17.4095L74.3064 18.7484C73.2703 19.7147 72.0944 20.1183 70.7399 20.1183C69.2963 20.1183 68.2019 19.6992 67.4334 18.8726C66.665 18.0498 66.2925 17.0292 66.2925 15.8455C66.2925 14.5998 66.6844 13.583 67.48 12.7719C68.2756 11.9608 69.2963 11.5572 70.5614 11.5572C71.749 11.5572 72.7386 11.9336 73.507 12.6671C74.2754 13.4006 74.6635 14.3902 74.6635 15.667C74.6635 15.9503 74.6324 16.2685 74.5897 16.5984M69.0556 8.48352C69.762 8.48352 70.3169 9.03848 70.3169 9.71375C70.3169 10.4472 69.7775 10.9867 69.0556 10.9867C68.3338 10.9867 67.7944 10.4472 67.7944 9.71375C67.7944 9.03848 68.3493 8.48352 69.0556 8.48352ZM68.4425 15.0228H72.6028C72.4087 13.9594 71.6403 13.3152 70.5614 13.3152C69.4825 13.3152 68.6986 13.9594 68.4425 15.0228ZM71.0543 9.71375C71.0543 9.00744 71.6093 8.48352 72.3311 8.48352C73.0529 8.48352 73.5768 9.03848 73.5768 9.71375C73.5768 10.4472 73.0374 10.9867 72.3311 10.9867C71.6248 10.9867 71.0543 10.4472 71.0543 9.71375Z" fill="#E52322"/>
<path d="M13.8081 0C6.19385 0 0 6.19385 0 13.8081C0 21.4223 6.19385 27.6162 13.8081 27.6162C21.4223 27.6162 27.6162 21.4223 27.6162 13.8081C27.6162 6.19385 21.4223 0 13.8081 0Z" fill="white"/>
<path d="M21.3833 4.34657C19.6952 8.73194 15.2128 8.16533 12.0538 8.274L11.2853 11.2661C15.1817 8.08772 20.3394 11.239 19.7883 16.0357C19.4157 19.2646 17.1144 21.3758 14.6772 21.9851C12.0227 22.6487 9.0849 21.6552 7.76541 18.9541C7.6257 18.6669 7.38121 18.0964 7.28806 17.7899L10.0862 17.0719C10.1366 17.2349 10.2181 17.3901 10.3074 17.5298C12.1818 20.553 15.9773 19.0395 16.4042 15.9076C16.8389 12.7176 12.3642 11.0216 10.3268 14.7473L7.84691 13.6878L7.80422 13.6684L8.72786 9.95829C8.87534 9.29854 9.31387 7.57544 9.36432 7.40856C9.44194 7.15243 9.46134 7.06317 9.5506 6.83032C11.1418 2.65063 14.2852 2.22762 17.0795 2.22762C17.192 2.22762 17.3007 2.22762 17.4132 2.22762C16.2722 1.87446 15.0614 1.68042 13.8079 1.68042C7.11343 1.68042 1.68799 7.10586 1.68799 13.8003C1.68799 20.4948 7.11343 25.9203 13.8079 25.9203C20.5024 25.9203 25.9278 20.4948 25.9278 13.8003C25.9278 9.97381 24.1504 6.55866 21.3795 4.33881" fill="#E52322"/>
<path d="M20.2774 3.52771C19.8078 4.98691 18.9889 5.90668 17.7199 6.39954C16.4004 6.91182 14.7976 6.92734 13.2453 6.93898C12.4109 6.94674 11.6114 6.95063 10.8818 7.03989C12.1974 3.85758 14.5648 3.54711 17.0834 3.54711C17.4327 3.54711 17.7859 3.55488 18.1274 3.56264C18.4689 3.5704 18.7871 3.57428 19.1093 3.57428C19.5672 3.57428 19.9475 3.55876 20.2813 3.53159" fill="#00923A"/>
</svg>
